<svg width="1200" height="630" viewBox="0 0 1200 630" fill="none" xmlns="http://www.w3.org/2000/svg">
  <!-- Background gradient -->
  <rect width="1200" height="630" fill="url(#grad1)"/>
  <defs>
    <linearGradient id="grad1" x1="0%" y1="0%" x2="100%" y2="100%">
      <stop offset="0%" style="stop-color:#6C47FF;stop-opacity:1" />
      <stop offset="100%" style="stop-color:#8B5CF6;stop-opacity:1" />
    </linearGradient>
  </defs>
  
  <!-- Grid pattern -->
  <g opacity="0.1">
    <line x1="0" y1="105" x2="1200" y2="105" stroke="white" stroke-width="1"/>
    <line x1="0" y1="210" x2="1200" y2="210" stroke="white" stroke-width="1"/>
    <line x1="0" y1="315" x2="1200" y2="315" stroke="white" stroke-width="1"/>
    <line x1="0" y1="420" x2="1200" y2="420" stroke="white" stroke-width="1"/>
    <line x1="0" y1="525" x2="1200" y2="525" stroke="white" stroke-width="1"/>
    <line x1="200" y1="0" x2="200" y2="630" stroke="white" stroke-width="1"/>
    <line x1="400" y1="0" x2="400" y2="630" stroke="white" stroke-width="1"/>
    <line x1="600" y1="0" x2="600" y2="630" stroke="white" stroke-width="1"/>
    <line x1="800" y1="0" x2="800" y2="630" stroke="white" stroke-width="1"/>
    <line x1="1000" y1="0" x2="1000" y2="630" stroke="white" stroke-width="1"/>
  </g>
  
  <!-- Icon: AI/Robot for ProCraft AI -->
  <g transform="translate(350, 150)">
    <circle cx="100" cy="80" r="60" fill="white" opacity="0.2"/>
    <rect x="60" y="50" width="80" height="80" rx="10" fill="white"/>
    <circle cx="80" cy="75" r="8" fill="#6C47FF"/>
    <circle cx="120" cy="75" r="8" fill="#6C47FF"/>
    <rect x="75" y="100" width="50" height="4" rx="2" fill="#6C47FF"/>
    <rect x="50" y="140" width="30" height="60" rx="5" fill="white"/>
    <rect x="120" y="140" width="30" height="60" rx="5" fill="white"/>
  </g>
  
  <!-- Text -->
  <text x="600" y="380" font-family="Arial, sans-serif" font-size="48" font-weight="bold" fill="white" text-anchor="middle">
    ProCraft AI
  </text>
  <text x="600" y="430" font-family="Arial, sans-serif" font-size="24" fill="white" opacity="0.9" text-anchor="middle">
    AI-Powered Resume Builder
  </text>
  
  <!-- Tech badges -->
  <g transform="translate(400, 470)">
    <rect width="80" height="30" rx="15" fill="white" opacity="0.3"/>
    <text x="40" y="20" font-family="Arial, sans-serif" font-size="14" fill="white" text-anchor="middle">Next.js</text>
  </g>
  <g transform="translate(490, 470)">
    <rect width="100" height="30" rx="15" fill="white" opacity="0.3"/>
    <text x="50" y="20" font-family="Arial, sans-serif" font-size="14" fill="white" text-anchor="middle">TypeScript</text>
  </g>
  <g transform="translate(600, 470)">
    <rect width="80" height="30" rx="15" fill="white" opacity="0.3"/>
    <text x="40" y="20" font-family="Arial, sans-serif" font-size="14" fill="white" text-anchor="middle">Prisma</text>
  </g>
  <g transform="translate(690, 470)">
    <rect width="90" height="30" rx="15" fill="white" opacity="0.3"/>
    <text x="45" y="20" font-family="Arial, sans-serif" font-size="14" fill="white" text-anchor="middle">Tailwind</text>
  </g>
</svg>
